<?xml version="1.0" encoding="UTF-8"?>
<svg id="Layer_2" data-name="Layer 2" xmlns="http://www.w3.org/2000/svg" viewBox="0 0 1523.95 335.44">
  <defs>
    <style>
      .cls-1 {
        fill: #b186ee;
      }

      .cls-2 {
        fill: #b488f0;
      }
    </style>
  </defs>
  <path class="cls-1" d="M648.58,88.71c6.63-.25,40.12-2.17,65.92-29.93,21.9-23.55,24.48-50.89,24.94-58.78h34.05c.57,7.6,3.64,36.62,27.76,60.73,26.25,26.24,58.55,27.8,65.51,27.98v36.44c-12.1-.21-38.99-2.32-66.81-19.52-23.42-14.48-36.57-32.9-42.78-43.06-5.41,9.95-16.47,27.05-36.6,41.1-29.84,20.83-60.63,21.71-71.99,21.47v-36.44Z"/>
  <g>
    <path class="cls-2" d="M107.72,329.92c-8.09,3.01-21.38,5.31-39.06,5.31-45.26,0-68.66-26.62-68.66-58.81,0-33.94,16.06-60.32,40.5-76.02,17.1-11.27,37.47-16.41,59.91-16.41,15.75,0,28.31,3.08,32.49,5.22l-9.77,25.06c-4.57-1.81-13.94-3.95-26.45-3.95-13.12,0-26.05,4.2-35.54,11.68-13.64,10.88-22.74,28.57-22.74,50.04s12.74,36.95,39.23,36.95c10.42,0,20.97-1.52,28.3-4.15l1.8,25.07Z"/>
    <path class="cls-2" d="M125.32,333.23l34.32-153.93h35.54l-13.65,60.56.51.08c9.49-9.45,21.85-15.85,37.44-15.85,18.45,0,29,10.25,29,27.31,0,5.35-1.04,13.05-2.52,19.73l-13.88,62.09h-35.52l13.48-60.23c.9-4.21,1.57-9.16,1.57-13.34,0-6.49-3.09-11.1-11.14-11.1-11.29,0-23.45,12.19-27.88,32.1l-11.76,52.57h-35.52Z"/>
    <path class="cls-2" d="M388.36,226.3l-16.03,72.09c-3.04,13.24-4.96,25.07-6.64,34.83h-31.16l1.94-16.46-.51-.16c-11.83,13.18-25.93,18.83-40.13,18.83-19.07,0-29.71-10.01-29.71-28.34,0-6.15.94-12.83,2.65-20.43l13.46-60.37h35.52l-12.99,58.3c-1.2,5.46-2.06,10.8-2.06,15.05,0,6.34,3.02,11.19,11.24,11.19,11.15,0,22.77-11.76,27.14-31.24l11.77-53.3h35.52Z"/>
    <path class="cls-2" d="M393.75,333.23l14.79-66.3c3.28-14.92,4.97-31.18,6.39-40.63h30.66c-.6,6.74-1.2,13.5-2.17,20.7h.84c8.96-14,22.13-22.91,37.36-22.91,2.23,0,4.39.11,6.38.32l-6.88,29.69c-1.45-.13-3.63-.24-5.65-.24-20.66,0-32.37,16.61-36.79,36.73l-9.42,42.63h-35.52Z"/>
    <path class="cls-2" d="M567.13,330.4c-6.73,2.68-18.07,4.83-31.72,4.83-30.03,0-48.81-16.95-48.81-42.25,0-38.02,32.37-68.72,77.65-68.72,9.78,0,17.77,1.45,22.62,3.11l-8.75,23.59c-4.05-1.26-8.56-2.21-14.66-2.21-24.06,0-40.06,19.74-40.06,40.64,0,14.03,9.39,21.5,22.14,21.5,9.3,0,16.35-1.94,22.05-3.81l-.46,23.34Z"/>
    <path class="cls-2" d="M584.09,333.23l34.32-153.93h35.54l-13.65,60.56.51.08c9.49-9.45,21.85-15.85,37.44-15.85,18.45,0,29,10.25,29,27.31,0,5.35-1.04,13.05-2.52,19.73l-13.88,62.09h-35.52l13.48-60.23c.9-4.21,1.57-9.16,1.57-13.34,0-6.49-3.09-11.1-11.14-11.1-11.29,0-23.45,12.19-27.88,32.1l-11.76,52.57h-35.52Z"/>
    <path class="cls-2" d="M798.09,188.15c13.02-2.01,27.94-3.05,43.41-3.05,25.16,0,44.26,5.45,57.05,15.64,12.7,9.96,19.8,24.14,19.8,43.71,0,31.18-15.67,57.86-35.98,71.74-18.39,12.57-40.76,17.93-73.82,17.93-17.55,0-34.07-1.29-42.5-2.8l32.04-143.17ZM806.48,308.53c3.67.45,8.37.75,13.9.75,17.2,0,33.18-6.38,43.33-18.04,10.59-12.18,16.68-28.41,16.68-47.39,0-20.56-12.13-34.51-38.45-34.51-5.46,0-10.02.27-13.19.86l-22.26,98.34Z"/>
    <path class="cls-2" d="M1048.18,266.21c0,37.34-28.37,69.23-70.29,69.23-31.89,0-48.88-18.67-48.88-42.02,0-36.68,28.29-69.33,70.95-69.33,33.17,0,48.22,20.54,48.22,42.11ZM965.3,292.61c0,11.08,5.28,19.78,17.28,19.78,18.68,0,29.31-28.55,29.31-47,0-9.1-4.18-18.24-16.81-18.24-19.11,0-29.87,28.35-29.77,45.46Z"/>
    <path class="cls-2" d="M1057.24,333.23l16-72.09c3.07-13.24,5.01-25.07,6.77-34.83h31.11l-2.06,16.58h.51c10.89-12.73,25.26-18.79,40.95-18.79,19.76,0,29.9,10.71,29.9,27.53,0,5.26-1.1,12.79-2.36,18.67l-14.06,62.94h-35.52l13.62-61.34c.82-3.75,1.42-7.79,1.42-11.76,0-6.76-2.83-11.56-11.08-11.56-10.69,0-23.56,11.84-28.57,34.47l-11.12,50.2h-35.52Z"/>
    <path class="cls-2" d="M1269.27,333.23c.28-6.09.89-12.94,1.48-20.21h-.71c-11.07,16.7-25.98,22.42-39.2,22.42-21.27,0-34.82-14.41-34.82-35.66,0-34.93,25.42-75.68,84.88-75.68,14.28,0,29.3,2.34,39,5.07l-13.48,57c-3.05,13.35-5.41,34.23-5.09,47.06h-32.07ZM1280.24,247.77c-2.73-.53-5.93-.85-9.06-.85-23.09,0-38.67,28.18-38.74,46.79-.05,10.16,3.95,17.22,13.5,17.22,10.31,0,22.41-11.13,27.77-35.29l6.53-27.87Z"/>
    <path class="cls-2" d="M1395.99,196.78l-6.53,29.52h25.84l-5.11,22.6h-25.94l-9.2,40.23c-.94,4.06-1.79,8.93-1.79,12.21,0,5.64,3.07,8.97,10.44,8.97,3,0,6.52-.05,9.72-.44l-4.13,23.38c-5.1,1.51-13.68,2.16-21.05,2.16-21.35,0-31.52-9.48-31.52-23.12,0-5.58.77-11.36,2.51-18.72l10.13-44.65h-15.62l4.98-22.6h15.74l4.99-22.31,36.52-7.21Z"/>
    <path class="cls-2" d="M1508.62,327.54c-13.58,5.6-29.65,7.69-43.75,7.69-34.45,0-50.87-17.31-50.87-43.67,0-32.07,25.49-67.47,69.3-67.47,24.78,0,40.56,12.9,40.66,31.22,0,27.76-30.1,38-75.82,36.94.01,3.06,1.01,8.12,3.67,11.41,4.3,5.13,11.87,8.06,22.05,8.06,12.64,0,23.06-2.5,32.33-6.35l2.45,22.16ZM1478.89,246.84c-14.95,0-24.55,11.63-27.33,23.18,25.18.36,39.57-3.72,39.57-13.9,0-5.6-4.54-9.28-12.24-9.28Z"/>
  </g>
</svg>